#!OML:ASF X:\für Bonn\!DataBase\2005_08_12_Daniel\c3d\Daniel.ASF
:FULLY-SPECIFIED
:DEGREES
31
root 1.84854 17.1498 -17.9788 349.102 -2.09756 0.474566
lowerback 25.4384 2.0604 -4.09264
upperback 8.36875 1.37316 -3.87033
thorax -4.83402 0.675972 -2.27535
lowerneck 7.85113 3.39832 0.184356
upperneck 22.6563 5.19241 -3.31063
head 5.69563 2.32594 -0.958998
rclavicle -1.74931e-014 -3.18055e-014
rhumerus -5.92389 -11.8353 -94.877
rradius 13.0105
rwrist 29.1564
rhand -13.2428 15.5876
rfingers 7.12502
rthumb 12.8592 -13.9963
lclavicle -1.74931e-014 -3.18055e-014
lhumerus -40.4369 45.6069 60.2007
lradius 18.5902
lwrist -44.1231
lhand -7.34485 -3.33522
lfingers 7.12502
lthumb 18.5391 25.8014
rfemur -6.36205 -13.3176 9.01824
rtibia 72.2317
rfoot -1.8867 -355.155
rtoes -9.73038
lfemur -19.6538 1.89009 -21.779
ltibia 39.8453
lfoot -8.66593 -2.49709
ltoes -4.52168
32
root 1.85949 17.1648 -17.9041 349.19 -2.01893 0.389789
lowerback 25.7196 2.05206 -4.06607
upperback 8.54592 1.35792 -3.87769
thorax -4.77468 0.667882 -2.29992
lowerneck 7.87589 3.45307 0.20041
upperneck 22.4802 5.28422 -3.46542
head 5.64147 2.3657 -1.00983
rclavicle -5.96354e-015 6.36111e-015
rhumerus -5.65261 -10.4799 -95.1979
rradius 13.1663
rwrist 28.1668
rhand -13.1448 15.4987
rfingers 7.12502
rthumb 12.9537 -14.0792
lclavicle -5.96354e-015 6.36111e-015
lhumerus -38.0524 42.8291 63.2679
lradius 19.5222
lwrist -41.0469
lhand -7.90828 -3.31169
lfingers 7.12502
lthumb 17.9971 25.8756
rfemur -7.73889 -13.7523 9.36119
rtibia 72.464
rfoot -1.93875 -354.256
rtoes -9.2604
lfemur -19.5263 1.97014 -21.7531
ltibia 39.9605
lfoot -8.94057 -2.67239
ltoes -4.46802
33
root 1.86773 17.1781 -17.83 349.255 -1.87048 0.297518
lowerback 25.9992 2.02293 -4.02694
upperback 8.75863 1.32179 -3.88635
thorax -4.67432 0.649704 -2.32597
lowerneck 7.78691 3.51352 0.159564
upperneck 22.3224 5.37429 -3.55839
head 5.60856 2.40219 -1.02901
rclavicle -3.18055e-015 7.95139e-015
rhumerus -5.39602 -9.0246 -95.4996
rradius 13.4371
rwrist 27.2104
rhand -13.0158 15.3367
rfingers 7.12502
rthumb 13.0779 -14.2333
lclavicle -3.18055e-015 7.95139e-015
lhumerus -35.971 39.9685 66.0134
lradius 20.5995
lwrist -37.8486
lhand -8.4617 -3.3344
lfingers 7.12502
lthumb 17.4645 25.9011
rfemur -8.99558 -14.1736 9.74324
rtibia 72.5135
rfoot -1.97849 -353.458
rtoes -9.23286
lfemur -19.4078 2.04148 -21.7267
ltibia 40.1023
lfoot -9.20831 -2.87739
ltoes -4.60385
34
root 1.8739 17.1889 -17.7564 349.344 -1.68022 0.209019
lowerback 26.2369 1.98844 -3.98893
upperback 8.97444 1.28229 -3.89546
thorax -4.54946 0.630059 -2.34932
lowerneck 7.65608 3.56994 0.167859
upperneck 22.2108 5.46784 -3.67943
head 5.59916 2.4414 -1.064
rclavicle -1.78906e-014 1.59028e-014
rhumerus -5.18653 -7.85271 -95.7808
rradius 13.7737
rwrist 26.4727
rhand -12.8578 15.2714
rfingers 7.12502
rthumb 13.2303 -14.2887
lclavicle -1.78906e-014 1.59028e-014
lhumerus -34.2503 37.1757 68.3638
lradius 21.8041
lwrist -34.7245
lhand -9.03336 -3.5299
lfingers 7.12502
lthumb 16.9143 25.7536
rfemur -10.1848 -14.6358 10.1224
rtibia 72.4206
rfoot -2.1239 -352.724
rtoes -9.60878
lfemur -19.3388 2.04534 -21.7031
ltibia 40.2825
lfoot -9.46674 -3.08607
ltoes -4.55228
35
root 1.87732 17.1973 -17.6828 349.442 -1.48133 0.071398
lowerback 26.4675 1.95056 -3.92332
upperback 9.17338 1.24657 -3.88579
thorax -4.43936 0.612611 -2.36902
lowerneck 7.42931 3.63127 0.182685
upperneck 22.2287 5.57291 -3.78118
head 5.6467 2.48405 -1.09078
rclavicle 6.75868e-015 1.43125e-014
rhumerus -4.98933 -6.82386 -96.0581
rradius 14.0973
rwrist 25.9011
rhand -12.7044 15.1362
rfingers 7.12502
rthumb 13.3781 -14.4143
lclavicle 6.75868e-015 1.43125e-014
lhumerus -32.8276 34.4219 70.3918
lradius 23.1365
lwrist -31.6036
lhand -9.50027 -3.7524
lfingers 7.12502
lthumb 16.4648 25.5689
rfemur -11.261 -15.0585 10.5828
rtibia 72.1572
rfoot -2.42069 -352.057
rtoes -10.2732
lfemur -19.3106 2.11121 -21.6186
ltibia 40.4985
lfoot -9.74072 -3.36611
ltoes -4.65556
36
root 1.87953 17.2052 -17.6112 349.519 -1.23821 -0.0538612
lowerback 26.7181 1.90854 -3.84714
upperback 9.39299 1.20801 -3.88655
thorax -4.31472 0.594355 -2.40561
lowerneck 7.15747 3.67846 0.21434
upperneck 22.2304 5.66134 -3.89176
head 5.6967 2.51919 -1.12249
rclavicle 2.46493e-014 1.59028e-015
rhumerus -4.76288 -5.74313 -96.296
rradius 14.3902
rwrist 25.2534
rhand -12.589 15.1108
rfingers 7.12502
rthumb 13.4893 -14.4323
lclavicle 2.46493e-014 1.59028e-015
lhumerus -31.6285 31.9768 72.07
lradius 24.5387
lwrist -28.8463
lhand -9.96757 -4.10014
lfingers 7.12502
lthumb 16.0149 25.2579
rfemur -12.2636 -15.4831 11.0356
rtibia 71.7673
rfoot -2.78612 -351.425
rtoes -11.0518
lfemur -19.2835 2.14815 -21.5427
ltibia 40.7414
lfoot -9.99939 -3.66666
ltoes -4.60072
37
root 1.87952 17.2123 -17.5405 349.606 -0.978469 -0.196524
lowerback 26.9429 1.85867 -3.76189
upperback 9.61855 1.16515 -3.87576
thorax -4.17071 0.574138 -2.43239
lowerneck 6.87671 3.72145 0.230016
upperneck 22.2245 5.74776 -4.02551
head 5.74621 2.55064 -1.15859
rclavicle 2.38542e-014 2.22639e-014
rhumerus -4.49273 -4.8905 -96.521
rradius 14.63
rwrist 24.9094
rhand -12.4927 15.1681
rfingers 7.12502
rthumb 13.5822 -14.3689
lclavicle 2.38542e-014 2.22639e-014
lhumerus -30.5776 29.5849 73.562
lradius 26.0399
lwrist -26.0768
lhand -10.3525 -4.39106
lfingers 7.12502
lthumb 15.6442 24.9964
rfemur -13.2059 -15.9009 11.5247
rtibia 71.2394
rfoot -3.14574 -350.883
rtoes -11.5057
lfemur -19.2833 2.20554 -21.445
ltibia 40.9954
lfoot -10.2375 -3.97547
ltoes -4.62527
38
root 1.87823 17.2185 -17.4722 349.691 -0.72324 -0.356664
lowerback 27.2087 1.8164 -3.65559
upperback 9.81806 1.13402 -3.85844
thorax -4.07421 0.560444 -2.46944
lowerneck 6.6533 3.75649 0.210594
upperneck 22.1956 5.81205 -4.10639
head 5.77639 2.57299 -1.17398
rclavicle 3.18055e-015 -6.36111e-014
rhumerus -4.27485 -3.99335 -96.7108
rradius 14.8485
rwrist 24.4204
rhand -12.4656 15.3196
rfingers 7.12502
rthumb 13.6083 -14.2156
lclavicle 3.18055e-015 -6.36111e-014
lhumerus -29.7061 27.4409 74.8178
lradius 27.623
lwrist -23.5638
lhand -10.7247 -4.77523
lfingers 7.12502
lthumb 15.2857 24.6399
rfemur -14.0997 -16.2647 12.0526
rtibia 70.5896
rfoot -3.42963 -350.488
rtoes -11.5222
lfemur -19.2957 2.29038 -21.3123
ltibia 41.2517
lfoot -10.4718 -4.34432
ltoes -4.63498
39
root 1.87732 17.224 -17.4059 349.786 -0.458296 -0.481416
lowerback 27.464 1.77562 -3.56436
upperback 10.0186 1.10125 -3.85899
thorax -3.97054 0.546348 -2.51669
lowerneck 6.43967 3.79221 0.208712
upperneck 22.1584 5.8797 -4.2026
head 5.8035 2.59763 -1.19722
rclavicle 2.46493e-014 -3.65764e-014
rhumerus -4.00739 -3.38882 -96.9074
rradius 15.0033
rwrist 24.2766
rhand -12.4258 15.5224
rfingers 7.12502
rthumb 13.6466 -14.0102
lclavicle 2.46493e-014 -3.65764e-014
lhumerus -28.9145 25.3945 75.8939
lradius 29.2471
lwrist -21.2132
lhand -11.0889 -5.09917
lfingers 7.12502
lthumb 14.9348 24.3424
rfemur -14.9273 -16.6455 12.5185
rtibia 69.824
rfoot -3.70772 -350.151
rtoes -11.4515
lfemur -19.3349 2.36826 -21.2201
ltibia 41.5051
lfoot -10.6716 -4.70542
ltoes -4.62232
40
root 1.87526 17.2295 -17.3409 349.858 -0.21928 -0.624159
lowerback 27.7322 1.74595 -3.47136
upperback 10.2275 1.08391 -3.84547
thorax -3.86272 0.539718 -2.55432
lowerneck 6.23891 3.82081 0.20019
upperneck 22.1072 5.93374 -4.28212
head 5.82311 2.61656 -1.21476
rclavicle -2.38542e-015 1.74931e-014
rhumerus -3.74055 -2.67446 -97.0736
rradius 15.1924
rwrist 23.981
rhand -12.3508 15.7019
rfingers 7.12502
rthumb 13.719 -13.8258
lclavicle -2.38542e-015 1.74931e-014
lhumerus -28.1733 23.5836 76.8376
lradius 30.9206
lwrist -19.0765
lhand -11.4571 -5.36513
lfingers 7.12502
lthumb 14.5801 24.1024
rfemur -15.663 -16.9716 13.0119
rtibia 68.9401
rfoot -3.98009 -349.974
rtoes -11.3204
lfemur -19.3447 2.49068 -21.0985
ltibia 41.7581
lfoot -10.8837 -5.04973
ltoes -4.57574
41
root 1.87334 17.2349 -17.2788 349.939 0.00319777 -0.745298
lowerback 28.0226 1.72902 -3.3699
upperback 10.4133 1.08171 -3.84851
thorax -3.78927 0.541458 -2.62088
lowerneck 6.11944 3.83769 0.20054
upperneck 21.9999 5.96675 -4.35612
head 5.81113 2.62887 -1.23481
rclavicle 2.3059e-014 -3.18055e-015
rhumerus -3.47884 -2.1394 -97.2303
rradius 15.3068
rwrist 23.8549
rhand -12.4141 15.9935
rfingers 7.12502
rthumb 13.658 -13.5384
lclavicle 2.3059e-014 -3.18055e-015
lhumerus -27.4752 21.759 77.6492
lradius 32.6103
lwrist -17.0547
lhand -11.8071 -5.58552
lfingers 7.12502
lthumb 14.2429 23.9061
rfemur -16.3554 -17.2457 13.4779
rtibia 67.9697
rfoot -4.30007 -349.898
rtoes -11.0634
lfemur -19.3787 2.64294 -20.989
ltibia 42.0138
lfoot -11.0798 -5.43998
ltoes -4.58477
42
root 1.87032 17.2383 -17.2181 349.993 0.247832 -0.856465
lowerback 28.3217 1.70988 -3.27179
upperback 10.6101 1.07646 -3.85548
thorax -3.70655 0.54211 -2.68909
lowerneck 6.00015 3.85015 0.176847
upperneck 21.9219 5.98597 -4.37684
head 5.80605 2.63523 -1.23425
rclavicle -5.56597e-015 -3.18055e-015
rhumerus -3.24495 -1.3902 -97.3555
rradius 15.486
rwrist 23.4925
rhand -12.423 16.2249
rfingers 7.12502
rthumb 13.6493 -13.3075
lclavicle -5.56597e-015 -3.18055e-015
lhumerus -26.8032 20.1635 78.3314
lradius 34.2917
lwrist -15.2623
lhand -12.174 -5.81428
lfingers 7.12502
lthumb 13.8893 23.7019
rfemur -16.9376 -17.5029 13.9018
rtibia 66.9022
rfoot -4.63931 -349.843
rtoes -10.899
lfemur -19.4025 2.78337 -20.8871
ltibia 42.2727
lfoot -11.2269 -5.83576
ltoes -4.39686
43
root 1.86624 17.2404 -17.1586 350.06 0.481207 -0.96191
lowerback 28.6181 1.70303 -3.17741
upperback 10.7791 1.08545 -3.85698
thorax -3.65257 0.549871 -2.75403
lowerneck 5.98749 3.85767 0.16238
upperneck 21.781 5.99695 -4.41932
head 5.76412 2.64018 -1.24521
rclavicle 1.35174e-014 7.95139e-015
rhumerus -3.07254 -0.722264 -97.4606
rradius 15.678
rwrist 23.1524
rhand -12.5278 16.4277
rfingers 7.12502
rthumb 13.5484 -13.1115
lclavicle 1.35174e-014 7.95139e-015
lhumerus -26.224 18.5868 78.9228
lradius 36.0265
lwrist -13.5765
lhand -12.4682 -5.99561
lfingers 7.12502
lthumb 13.6058 23.5398
rfemur -17.4699 -17.7412 14.31
rtibia 65.7714
rfoot -5.07706 -349.895
rtoes -11.0833
lfemur -19.4415 2.95653 -20.7887
ltibia 42.5334
lfoot -11.4184 -6.22227
ltoes -4.49826
